<svg xmlns="http://www.w3.org/2000/svg" xmlns:xlink="http://www.w3.org/1999/xlink" fill="none" version="1.1" width="987" height="873" viewBox="0 0 987 873"><defs><clipPath id="master_svg0_5_0"><rect x="0" y="0" width="987" height="873" rx="0"/></clipPath></defs><g style="mix-blend-mode:passthrough" clip-path="url(#master_svg0_5_0)"><g style="mix-blend-mode:passthrough" transform="matrix(0,1,-1,0,226.9993896484375,-53.0006103515625)"><path d="M843,136.9993896484375L140,136.9993896484375L140,36.9993896484375L843,36.9993896484375L843,136.9993896484375ZM893,86.9993896484375Q893,88.2268196484375,892.94,89.4527696484375Q892.88,90.6787296484375,892.759,91.9002496484375Q892.639,93.12176964843749,892.459,94.33590964843751Q892.279,95.5500596484375,892.039,96.7538996484375Q891.8,97.9577896484375,891.501,99.1483896484375Q891.203,100.3390896484375,890.847,101.5135896484375Q890.491,102.6881896484375,890.077,103.8438896484375Q889.664,104.9995896484375,889.194,106.13358964843749Q888.724,107.26758964843751,888.199,108.37718964843751Q887.674,109.4866896484375,887.096,110.5691896484375Q886.517,111.6516896484375,885.886,112.7044896484375Q885.255,113.7572896484375,884.573,114.77788964843751Q883.891,115.7984896484375,883.16,116.7843896484375Q882.429,117.77018964843751,881.65,118.7190896484375Q880.872,119.6678896484375,880.047,120.5772896484375Q879.223,121.48678964843751,878.355,122.3546896484375Q877.487,123.2226896484375,876.578,124.0469896484375Q875.668,124.87118964843751,874.72,125.6498896484375Q873.771,126.42858964843751,872.785,127.15978964843751Q871.799,127.8909896484375,870.778,128.5728896484375Q869.758,129.2547896484375,868.705,129.8857896484375Q867.652,130.5167896484375,866.57,131.0954896484375Q865.487,131.6740896484375,864.378,132.1988896484375Q863.268,132.7236896484375,862.134,133.19338964843752Q861,133.6630896484375,859.844,134.0765896484375Q858.689,134.4900896484375,857.514,134.8463896484375Q856.34,135.2026896484375,855.149,135.5009896484375Q853.958,135.7991896484375,852.754,136.0386896484375Q851.551,136.27808964843751,850.336,136.4581896484375Q849.122,136.6382896484375,847.901,136.7585896484375Q846.679,136.8788896484375,845.453,136.9391896484375Q844.227,136.9993896484375,843,136.9993896484375Q841.773,136.9993896484375,840.547,136.9391896484375Q839.321,136.8788896484375,838.099,136.7585896484375Q836.878,136.6382896484375,835.663,136.4581896484375Q834.449,136.27808964843751,833.245,136.0386896484375Q832.042,135.7991896484375,830.851,135.5009896484375Q829.66,135.2026896484375,828.486,134.8463896484375Q827.311,134.4900896484375,826.155,134.0765896484375Q825,133.6630896484375,823.866,133.19338964843752Q822.732,132.7236896484375,821.622,132.1988896484375Q820.513,131.6740896484375,819.43,131.0954896484375Q818.348,130.5167896484375,817.295,129.8857896484375Q816.242,129.2547896484375,815.221,128.5728896484375Q814.201,127.89088964843751,813.215,127.15978964843751Q812.229,126.42858964843751,811.28,125.6498896484375Q810.332,124.87118964843751,809.422,124.0469896484375Q808.513,123.2226896484375,807.645,122.3546896484375Q806.777,121.48678964843751,805.952,120.5772896484375Q805.128,119.6678896484375,804.349,118.7190896484375Q803.571,117.77018964843751,802.839,116.7843896484375Q802.108,115.7984896484375,801.426,114.77788964843751Q800.745,113.7572896484375,800.113,112.7044896484375Q799.482,111.6516896484375,798.904,110.5691896484375Q798.325,109.4866896484375,797.8,108.37718964843751Q797.276,107.26758964843751,796.806,106.13358964843749Q796.336,104.9995896484375,795.923,103.8438896484375Q795.509,102.6881896484375,795.153,101.5135896484375Q794.797,100.3390896484375,794.498,99.1483896484375Q794.2,97.9577896484375,793.961,96.7538996484375Q793.721,95.5500596484375,793.541,94.33590964843751Q793.361,93.12176964843749,793.241,91.9002496484375Q793.12,90.6787296484375,793.06,89.4527696484375Q793,88.2268196484375,793,86.9993896484375Q793,85.7719596484375,793.06,84.5460096484375Q793.12,83.3200496484375,793.241,82.0985296484375Q793.361,80.87700964843751,793.541,79.66286964843749Q793.721,78.4487196484375,793.961,77.2448796484375Q794.2,76.0409896484375,794.498,74.8503896484375Q794.797,73.6596896484375,795.153,72.4851896484375Q795.509,71.3105896484375,795.923,70.1548896484375Q796.336,68.9991896484375,796.806,67.86518964843751Q797.276,66.73118964843749,797.8,65.62158964843749Q798.325,64.5120896484375,798.904,63.4295896484375Q799.482,62.3470896484375,800.113,61.2942896484375Q800.745,60.2414896484375,801.426,59.2208896484375Q802.108,58.200289648437504,802.84,57.2143896484375Q803.571,56.2285896484375,804.349,55.2796896484375Q805.128,54.3308896484375,805.952,53.4214896484375Q806.777,52.5119896484375,807.645,51.6440896484375Q808.513,50.7760896484375,809.422,49.9517896484375Q810.332,49.1275896484375,811.28,48.3488896484375Q812.229,47.5701896484375,813.215,46.8389896484375Q814.201,46.1077896484375,815.221,45.4258896484375Q816.242,44.7439896484375,817.295,44.1129896484375Q818.348,43.4819896484375,819.43,42.9032896484375Q820.513,42.3246896484375,821.622,41.7998896484375Q822.732,41.2750896484375,823.866,40.8053896484375Q825,40.3356896484375,826.155,39.9221896484375Q827.311,39.5086896484375,828.486,39.1523896484375Q829.66,38.7960896484375,830.851,38.4977896484375Q832.042,38.1995896484375,833.245,37.9600896484375Q834.449,37.7206896484375,835.663,37.5405896484375Q836.878,37.3604896484375,838.099,37.2401896484375Q839.321,37.1198896484375,840.547,37.0595896484375Q841.773,36.9993896484375,843,36.9993896484375Q844.227,36.9993896484375,845.453,37.0595896484375Q846.679,37.1198896484375,847.901,37.2401896484375Q849.122,37.3604896484375,850.336,37.5405896484375Q851.551,37.7206896484375,852.754,37.9600896484375Q853.958,38.1995896484375,855.149,38.4977896484375Q856.34,38.7960896484375,857.514,39.1523896484375Q858.689,39.5086896484375,859.844,39.9221896484375Q861,40.3356896484375,862.134,40.8053896484375Q863.268,41.2750896484375,864.378,41.7998896484375Q865.487,42.3246896484375,866.57,42.9032896484375Q867.652,43.4819896484375,868.705,44.1129896484375Q869.758,44.7439896484375,870.778,45.4258896484375Q871.799,46.1078896484375,872.785,46.8389896484375Q873.771,47.5701896484375,874.72,48.3488896484375Q875.668,49.1275896484375,876.578,49.9517896484375Q877.487,50.7760896484375,878.355,51.6440896484375Q879.223,52.5119896484375,880.047,53.4214896484375Q880.872,54.3308896484375,881.651,55.2796896484375Q882.429,56.2285896484375,883.16,57.2143896484375Q883.891,58.200289648437504,884.573,59.2208896484375Q885.255,60.2414896484375,885.886,61.2942896484375Q886.517,62.3470896484375,887.096,63.4295896484375Q887.674,64.5120896484375,888.199,65.62158964843749Q888.724,66.73118964843749,889.194,67.86518964843751Q889.664,68.9991896484375,890.077,70.1548896484375Q890.491,71.3105896484375,890.847,72.4851896484375Q891.203,73.6596896484375,891.502,74.8503896484375Q891.8,76.0409896484375,892.039,77.2448796484375Q892.279,78.4487196484375,892.459,79.66286964843749Q892.639,80.87700964843751,892.759,82.0985296484375Q892.88,83.3200496484375,892.94,84.5460096484375Q893,85.7719596484375,893,86.9993896484375ZM190,86.9993896484375Q190,88.2268196484375,189.9398,89.4527696484375Q189.8795,90.6787296484375,189.7592,91.9002496484375Q189.6389,93.12176964843749,189.4588,94.33590964843751Q189.27870000000001,95.5500596484375,189.0393,96.7538996484375Q188.7998,97.9577896484375,188.5016,99.1483896484375Q188.2033,100.3390896484375,187.847,101.5135896484375Q187.4907,102.6881896484375,187.0772,103.8438896484375Q186.6637,104.9995896484375,186.19400000000002,106.13358964843749Q185.7243,107.26758964843751,185.1995,108.37718964843751Q184.6747,109.4866896484375,184.0961,110.5691896484375Q183.5174,111.6516896484375,182.8864,112.7044896484375Q182.2554,113.7572896484375,181.5735,114.77788964843751Q180.8915,115.7984896484375,180.1604,116.7843896484375Q179.4292,117.77018964843751,178.6505,118.7190896484375Q177.8718,119.6678896484375,177.0476,120.5772896484375Q176.2233,121.48678964843751,175.3553,122.3546896484375Q174.4874,123.2226896484375,173.5779,124.0469896484375Q172.6685,124.87118964843751,171.7197,125.6498896484375Q170.7708,126.42858964843751,169.785,127.15978964843751Q168.7991,127.8909896484375,167.7785,128.5728896484375Q166.7579,129.2547896484375,165.70510000000002,129.8857896484375Q164.6523,130.5167896484375,163.5698,131.0954896484375Q162.4873,131.6740896484375,161.3778,132.1988896484375Q160.2682,132.7236896484375,159.1342,133.19338964843752Q158.0002,133.6630896484375,156.8445,134.0765896484375Q155.68880000000001,134.4900896484375,154.5142,134.8463896484375Q153.3397,135.2026896484375,152.149,135.5009896484375Q150.9584,135.7991896484375,149.75451,136.0386896484375Q148.55067,136.27808964843751,147.33652,136.4581896484375Q146.12238,136.6382896484375,144.90086,136.7585896484375Q143.67934,136.8788896484375,142.45338,136.9391896484375Q141.22743,136.9993896484375,140,136.9993896484375Q138.77257,136.9993896484375,137.54662,136.9391896484375Q136.32066,136.8788896484375,135.09914,136.7585896484375Q133.87762,136.6382896484375,132.66348,136.4581896484375Q131.44933,136.27808964843751,130.24549,136.0386896484375Q129.0416,135.7991896484375,127.851,135.5009896484375Q126.6603,135.2026896484375,125.4858,134.8463896484375Q124.3112,134.4900896484375,123.1555,134.0765896484375Q121.9998,133.6630896484375,120.86580000000001,133.19338964843752Q119.73179999999999,132.7236896484375,118.62219999999999,132.1988896484375Q117.5127,131.6740896484375,116.4302,131.0954896484375Q115.3477,130.5167896484375,114.2949,129.8857896484375Q113.2421,129.2547896484375,112.22149999999999,128.5728896484375Q111.2009,127.89088964843751,110.215,127.15978964843751Q109.22919999999999,126.42858964843751,108.2803,125.6498896484375Q107.3315,124.87118964843751,106.4221,124.0469896484375Q105.51259999999999,123.2226896484375,104.6447,122.3546896484375Q103.7767,121.48678964843751,102.9524,120.5772896484375Q102.12819999999999,119.6678896484375,101.3495,118.7190896484375Q100.57079999999999,117.77018964843751,99.83959999999999,116.7843896484375Q99.1084,115.7984896484375,98.4265,114.77788964843751Q97.74459999999999,113.7572896484375,97.11359999999999,112.7044896484375Q96.48259999999999,111.6516896484375,95.9039,110.5691896484375Q95.3253,109.4866896484375,94.8005,108.37718964843751Q94.2757,107.26758964843751,93.806,106.13358964843749Q93.3363,104.9995896484375,92.9228,103.8438896484375Q92.5093,102.6881896484375,92.15299999999999,101.5135896484375Q91.7967,100.3390896484375,91.4984,99.1483896484375Q91.2002,97.9577896484375,90.9607,96.7538996484375Q90.7213,95.5500596484375,90.5412,94.33590964843751Q90.3611,93.12176964843749,90.24080000000001,91.9002496484375Q90.12049999999999,90.6787296484375,90.06020000000001,89.4527696484375Q90,88.2268196484375,90,86.9993896484375Q90,85.7719596484375,90.06020000000001,84.5460096484375Q90.12049999999999,83.3200496484375,90.24080000000001,82.0985296484375Q90.3611,80.87700964843751,90.5412,79.66286964843749Q90.7213,78.4487196484375,90.9607,77.2448796484375Q91.2002,76.0409896484375,91.4984,74.8503896484375Q91.7967,73.6596896484375,92.15299999999999,72.4851896484375Q92.5093,71.3105896484375,92.9228,70.1548896484375Q93.3363,68.9991896484375,93.806,67.86518964843751Q94.2757,66.73118964843749,94.8005,65.62158964843749Q95.3253,64.5120896484375,95.9039,63.4295896484375Q96.48259999999999,62.3470896484375,97.11359999999999,61.2942896484375Q97.74459999999999,60.2414896484375,98.4265,59.2208896484375Q99.10849999999999,58.200289648437504,99.83959999999999,57.2143896484375Q100.57079999999999,56.2285896484375,101.3495,55.2796896484375Q102.12819999999999,54.3308896484375,102.9524,53.4214896484375Q103.7767,52.5119896484375,104.6447,51.6440896484375Q105.51259999999999,50.7760896484375,106.4221,49.9517896484375Q107.3315,49.1275896484375,108.2803,48.3488896484375Q109.22919999999999,47.5701896484375,110.215,46.8389896484375Q111.2009,46.1077896484375,112.22149999999999,45.4258896484375Q113.2421,44.7439896484375,114.2949,44.1129896484375Q115.3477,43.4819896484375,116.4302,42.9032896484375Q117.5127,42.3246896484375,118.62219999999999,41.7998896484375Q119.73179999999999,41.2750896484375,120.86580000000001,40.8053896484375Q121.9998,40.3356896484375,123.1555,39.9221896484375Q124.3112,39.5086896484375,125.4858,39.1523896484375Q126.6603,38.7960896484375,127.851,38.4977896484375Q129.0416,38.1995896484375,130.24549,37.9600896484375Q131.44933,37.7206896484375,132.66348,37.5405896484375Q133.87762,37.3604896484375,135.09914,37.2401896484375Q136.32066,37.1198896484375,137.54662,37.0595896484375Q138.77257,36.9993896484375,140,36.9993896484375Q141.22743,36.9993896484375,142.45338,37.0595896484375Q143.67934,37.1198896484375,144.90086,37.2401896484375Q146.12238,37.3604896484375,147.33652,37.5405896484375Q148.55067,37.7206896484375,149.75451,37.9600896484375Q150.9584,38.1995896484375,152.149,38.4977896484375Q153.3397,38.7960896484375,154.5142,39.1523896484375Q155.68880000000001,39.5086896484375,156.8445,39.9221896484375Q158.0002,40.3356896484375,159.1342,40.8053896484375Q160.2682,41.2750896484375,161.3778,41.7998896484375Q162.4873,42.3246896484375,163.5698,42.9032896484375Q164.6523,43.4819896484375,165.70510000000002,44.1129896484375Q166.7579,44.7439896484375,167.7785,45.4258896484375Q168.7991,46.1078896484375,169.785,46.8389896484375Q170.7708,47.5701896484375,171.7197,48.3488896484375Q172.6685,49.1275896484375,173.5779,49.9517896484375Q174.4874,50.7760896484375,175.3553,51.6440896484375Q176.2233,52.5119896484375,177.0476,53.4214896484375Q177.8718,54.3308896484375,178.6505,55.2796896484375Q179.4292,56.2285896484375,180.1604,57.2143896484375Q180.89159999999998,58.200289648437504,181.5735,59.2208896484375Q182.2554,60.2414896484375,182.8864,61.2942896484375Q183.5174,62.3470896484375,184.0961,63.4295896484375Q184.6747,64.5120896484375,185.1995,65.62158964843749Q185.7243,66.73118964843749,186.19400000000002,67.86518964843751Q186.6637,68.9991896484375,187.0772,70.1548896484375Q187.4907,71.3105896484375,187.847,72.4851896484375Q188.2033,73.6596896484375,188.5016,74.8503896484375Q188.7998,76.0409896484375,189.0393,77.2448796484375Q189.27870000000001,78.4487196484375,189.4588,79.66286964843749Q189.6389,80.87700964843751,189.7592,82.0985296484375Q189.8795,83.3200496484375,189.9398,84.5460096484375Q190,85.7719596484375,190,86.9993896484375Z" fill="#555555" fill-opacity="1"/></g><g style="mix-blend-mode:passthrough" transform="matrix(0,0.9999999403953552,1,0,760.0006103515625,-760.0005598664284)"><path d="M1550,136.9993896484375L847,136.9993896484375L847,36.9993896484375L1550,36.9993896484375L1550,136.9993896484375ZM1600,86.9993896484375Q1600,88.2268196484375,1599.94,89.4527696484375Q1599.88,90.6787296484375,1599.759,91.9002496484375Q1599.6390000000001,93.12176964843749,1599.4589999999998,94.33590964843751Q1599.279,95.5500596484375,1599.039,96.7538996484375Q1598.8,97.9577896484375,1598.501,99.1483896484375Q1598.203,100.3390896484375,1597.847,101.5135896484375Q1597.491,102.6881896484375,1597.077,103.8438896484375Q1596.664,104.9995896484375,1596.194,106.13358964843749Q1595.7240000000002,107.26758964843751,1595.199,108.37718964843751Q1594.674,109.4866896484375,1594.096,110.5691896484375Q1593.517,111.6516896484375,1592.886,112.7044896484375Q1592.255,113.7572896484375,1591.5729999999999,114.77788964843751Q1590.891,115.7984896484375,1590.1599999999999,116.7843896484375Q1589.429,117.77018964843751,1588.65,118.7190896484375Q1587.8719999999998,119.6678896484375,1587.047,120.5772896484375Q1586.223,121.48678964843751,1585.355,122.3546896484375Q1584.487,123.2226896484375,1583.578,124.0469896484375Q1582.6680000000001,124.87118964843751,1581.72,125.6498896484375Q1580.771,126.42858964843751,1579.7849999999999,127.15978964843751Q1578.799,127.8909896484375,1577.778,128.5728896484375Q1576.758,129.2547896484375,1575.705,129.8857896484375Q1574.652,130.5167896484375,1573.5700000000002,131.0954896484375Q1572.487,131.6740896484375,1571.3780000000002,132.1988896484375Q1570.268,132.7236896484375,1569.134,133.19338964843752Q1568,133.6630896484375,1566.844,134.0765896484375Q1565.6889999999999,134.4900896484375,1564.5140000000001,134.8463896484375Q1563.3400000000001,135.2026896484375,1562.149,135.5009896484375Q1560.958,135.7991896484375,1559.754,136.0386896484375Q1558.551,136.27808964843751,1557.336,136.4581896484375Q1556.1219999999998,136.6382896484375,1554.9009999999998,136.7585896484375Q1553.679,136.8788896484375,1552.453,136.9391896484375Q1551.2269999999999,136.9993896484375,1550,136.9993896484375Q1548.7730000000001,136.9993896484375,1547.547,136.9391896484375Q1546.321,136.8788896484375,1545.0990000000002,136.7585896484375Q1543.8780000000002,136.6382896484375,1542.663,136.4581896484375Q1541.449,136.27808964843751,1540.245,136.0386896484375Q1539.042,135.7991896484375,1537.851,135.5009896484375Q1536.6599999999999,135.2026896484375,1535.4859999999999,134.8463896484375Q1534.3110000000001,134.4900896484375,1533.155,134.0765896484375Q1532,133.6630896484375,1530.866,133.19338964843752Q1529.732,132.7236896484375,1528.6219999999998,132.1988896484375Q1527.513,131.6740896484375,1526.4299999999998,131.0954896484375Q1525.348,130.5167896484375,1524.295,129.8857896484375Q1523.242,129.2547896484375,1522.221,128.5728896484375Q1521.201,127.89088964843751,1520.2150000000001,127.15978964843751Q1519.229,126.42858964843751,1518.28,125.6498896484375Q1517.3319999999999,124.87118964843751,1516.422,124.0469896484375Q1515.513,123.2226896484375,1514.645,122.3546896484375Q1513.777,121.48678964843751,1512.952,120.5772896484375Q1512.1280000000002,119.6678896484375,1511.3490000000002,118.7190896484375Q1510.571,117.77018964843751,1509.839,116.7843896484375Q1509.108,115.7984896484375,1508.426,114.77788964843751Q1507.745,113.7572896484375,1507.113,112.7044896484375Q1506.482,111.6516896484375,1505.904,110.5691896484375Q1505.325,109.4866896484375,1504.8,108.37718964843751Q1504.2759999999998,107.26758964843751,1503.806,106.13358964843749Q1503.336,104.9995896484375,1502.923,103.8438896484375Q1502.509,102.6881896484375,1502.153,101.5135896484375Q1501.797,100.3390896484375,1501.498,99.1483896484375Q1501.2,97.9577896484375,1500.961,96.7538996484375Q1500.721,95.5500596484375,1500.5410000000002,94.33590964843751Q1500.3609999999999,93.12176964843749,1500.241,91.9002496484375Q1500.12,90.6787296484375,1500.06,89.4527696484375Q1500,88.2268196484375,1500,86.9993896484375Q1500,85.7719596484375,1500.06,84.5460096484375Q1500.12,83.3200496484375,1500.241,82.0985296484375Q1500.3609999999999,80.87700964843751,1500.5410000000002,79.66286964843749Q1500.721,78.4487196484375,1500.961,77.2448796484375Q1501.2,76.0409896484375,1501.498,74.8503896484375Q1501.797,73.6596896484375,1502.153,72.4851896484375Q1502.509,71.3105896484375,1502.923,70.1548896484375Q1503.336,68.9991896484375,1503.806,67.86518964843751Q1504.2759999999998,66.73118964843749,1504.8,65.62158964843749Q1505.325,64.5120896484375,1505.904,63.4295896484375Q1506.482,62.3470896484375,1507.113,61.2942896484375Q1507.745,60.2414896484375,1508.426,59.2208896484375Q1509.108,58.200289648437504,1509.8400000000001,57.2143896484375Q1510.571,56.2285896484375,1511.3490000000002,55.2796896484375Q1512.1280000000002,54.3308896484375,1512.952,53.4214896484375Q1513.777,52.5119896484375,1514.645,51.6440896484375Q1515.513,50.7760896484375,1516.422,49.9517896484375Q1517.3319999999999,49.1275896484375,1518.28,48.3488896484375Q1519.229,47.5701896484375,1520.2150000000001,46.8389896484375Q1521.201,46.1077896484375,1522.221,45.4258896484375Q1523.242,44.7439896484375,1524.295,44.1129896484375Q1525.348,43.4819896484375,1526.4299999999998,42.9032896484375Q1527.513,42.3246896484375,1528.6219999999998,41.7998896484375Q1529.732,41.2750896484375,1530.866,40.8053896484375Q1532,40.3356896484375,1533.155,39.9221896484375Q1534.3110000000001,39.5086896484375,1535.4859999999999,39.1523896484375Q1536.6599999999999,38.7960896484375,1537.851,38.4977896484375Q1539.042,38.1995896484375,1540.245,37.9600896484375Q1541.449,37.7206896484375,1542.663,37.5405896484375Q1543.8780000000002,37.3604896484375,1545.0990000000002,37.2401896484375Q1546.321,37.1198896484375,1547.547,37.0595896484375Q1548.7730000000001,36.9993896484375,1550,36.9993896484375Q1551.2269999999999,36.9993896484375,1552.453,37.0595896484375Q1553.679,37.1198896484375,1554.9009999999998,37.2401896484375Q1556.1219999999998,37.3604896484375,1557.336,37.5405896484375Q1558.551,37.7206896484375,1559.754,37.9600896484375Q1560.958,38.1995896484375,1562.149,38.4977896484375Q1563.3400000000001,38.7960896484375,1564.5140000000001,39.1523896484375Q1565.6889999999999,39.5086896484375,1566.844,39.9221896484375Q1568,40.3356896484375,1569.134,40.8053896484375Q1570.268,41.2750896484375,1571.3780000000002,41.7998896484375Q1572.487,42.3246896484375,1573.5700000000002,42.9032896484375Q1574.652,43.4819896484375,1575.705,44.1129896484375Q1576.758,44.7439896484375,1577.778,45.4258896484375Q1578.799,46.1078896484375,1579.7849999999999,46.8389896484375Q1580.771,47.5701896484375,1581.72,48.3488896484375Q1582.6680000000001,49.1275896484375,1583.578,49.9517896484375Q1584.487,50.7760896484375,1585.355,51.6440896484375Q1586.223,52.5119896484375,1587.047,53.4214896484375Q1587.8719999999998,54.3308896484375,1588.6509999999998,55.2796896484375Q1589.429,56.2285896484375,1590.1599999999999,57.2143896484375Q1590.891,58.200289648437504,1591.5729999999999,59.2208896484375Q1592.255,60.2414896484375,1592.886,61.2942896484375Q1593.517,62.3470896484375,1594.096,63.4295896484375Q1594.674,64.5120896484375,1595.199,65.62158964843749Q1595.7240000000002,66.73118964843749,1596.194,67.86518964843751Q1596.664,68.9991896484375,1597.077,70.1548896484375Q1597.491,71.3105896484375,1597.847,72.4851896484375Q1598.203,73.6596896484375,1598.502,74.8503896484375Q1598.8,76.0409896484375,1599.039,77.2448796484375Q1599.279,78.4487196484375,1599.4589999999998,79.66286964843749Q1599.6390000000001,80.87700964843751,1599.759,82.0985296484375Q1599.88,83.3200496484375,1599.94,84.5460096484375Q1600,85.7719596484375,1600,86.9993896484375ZM897,86.9993896484375Q897,88.2268196484375,896.9398,89.4527696484375Q896.8795,90.6787296484375,896.7592,91.9002496484375Q896.6389,93.12176964843749,896.4588,94.33590964843751Q896.2787,95.5500596484375,896.0393,96.7538996484375Q895.7998,97.9577896484375,895.5016,99.1483896484375Q895.2033,100.3390896484375,894.847,101.5135896484375Q894.4907,102.6881896484375,894.0772,103.8438896484375Q893.6637,104.9995896484375,893.194,106.13358964843749Q892.7243,107.26758964843751,892.1995,108.37718964843751Q891.6747,109.4866896484375,891.0961,110.5691896484375Q890.5174,111.6516896484375,889.8864,112.7044896484375Q889.2554,113.7572896484375,888.5735,114.77788964843751Q887.8915,115.7984896484375,887.1604,116.7843896484375Q886.4292,117.77018964843751,885.6505,118.7190896484375Q884.8718,119.6678896484375,884.0476,120.5772896484375Q883.2233,121.48678964843751,882.3552999999999,122.3546896484375Q881.4874,123.2226896484375,880.5779,124.0469896484375Q879.6685,124.87118964843751,878.7197,125.6498896484375Q877.7708,126.42858964843751,876.785,127.15978964843751Q875.7991,127.8909896484375,874.7785,128.5728896484375Q873.7579,129.2547896484375,872.7051,129.8857896484375Q871.6523,130.5167896484375,870.5698,131.0954896484375Q869.4873,131.6740896484375,868.3778,132.1988896484375Q867.2682,132.7236896484375,866.1342,133.19338964843752Q865.0002,133.6630896484375,863.8445,134.0765896484375Q862.6888,134.4900896484375,861.5142,134.8463896484375Q860.3397,135.2026896484375,859.149,135.5009896484375Q857.9584,135.7991896484375,856.75451,136.0386896484375Q855.55067,136.27808964843751,854.33652,136.4581896484375Q853.12238,136.6382896484375,851.90086,136.7585896484375Q850.67934,136.8788896484375,849.45338,136.9391896484375Q848.22743,136.9993896484375,847,136.9993896484375Q845.77257,136.9993896484375,844.54662,136.9391896484375Q843.32066,136.8788896484375,842.09914,136.7585896484375Q840.87762,136.6382896484375,839.66348,136.4581896484375Q838.44933,136.27808964843751,837.24549,136.0386896484375Q836.0416,135.7991896484375,834.851,135.5009896484375Q833.6603,135.2026896484375,832.4858,134.8463896484375Q831.3112,134.4900896484375,830.1555,134.0765896484375Q828.9998,133.6630896484375,827.8658,133.19338964843752Q826.7318,132.7236896484375,825.6222,132.1988896484375Q824.5127,131.6740896484375,823.4302,131.0954896484375Q822.3477,130.5167896484375,821.2949,129.8857896484375Q820.2421,129.2547896484375,819.2215,128.5728896484375Q818.2009,127.89088964843751,817.215,127.15978964843751Q816.2292,126.42858964843751,815.2803,125.6498896484375Q814.3315,124.87118964843751,813.4221,124.0469896484375Q812.5126,123.2226896484375,811.6447000000001,122.3546896484375Q810.7767,121.48678964843751,809.9524,120.5772896484375Q809.1282,119.6678896484375,808.3495,118.7190896484375Q807.5708,117.77018964843751,806.8396,116.7843896484375Q806.1084,115.7984896484375,805.4265,114.77788964843751Q804.7446,113.7572896484375,804.1136,112.7044896484375Q803.4826,111.6516896484375,802.9039,110.5691896484375Q802.3253,109.4866896484375,801.8005,108.37718964843751Q801.2757,107.26758964843751,800.806,106.13358964843749Q800.3363,104.9995896484375,799.9228,103.8438896484375Q799.5093,102.6881896484375,799.153,101.5135896484375Q798.7967,100.3390896484375,798.4984,99.1483896484375Q798.2002,97.9577896484375,797.9607,96.7538996484375Q797.7213,95.5500596484375,797.5412,94.33590964843751Q797.3611,93.12176964843749,797.2408,91.9002496484375Q797.1205,90.6787296484375,797.0602,89.4527696484375Q797,88.2268196484375,797,86.9993896484375Q797,85.7719596484375,797.0602,84.5460096484375Q797.1205,83.3200496484375,797.2408,82.0985296484375Q797.3611,80.87700964843751,797.5412,79.66286964843749Q797.7213,78.4487196484375,797.9607,77.2448796484375Q798.2002,76.0409896484375,798.4984,74.8503896484375Q798.7967,73.6596896484375,799.153,72.4851896484375Q799.5093,71.3105896484375,799.9228,70.1548896484375Q800.3363,68.9991896484375,800.806,67.86518964843751Q801.2757,66.73118964843749,801.8005,65.62158964843749Q802.3253,64.5120896484375,802.9039,63.4295896484375Q803.4826,62.3470896484375,804.1136,61.2942896484375Q804.7446,60.2414896484375,805.4265,59.2208896484375Q806.1085,58.200289648437504,806.8396,57.2143896484375Q807.5708,56.2285896484375,808.3495,55.2796896484375Q809.1282,54.3308896484375,809.9524,53.4214896484375Q810.7767,52.5119896484375,811.6447000000001,51.6440896484375Q812.5126,50.7760896484375,813.4221,49.9517896484375Q814.3315,49.1275896484375,815.2803,48.3488896484375Q816.2292,47.5701896484375,817.215,46.8389896484375Q818.2009,46.1077896484375,819.2215,45.4258896484375Q820.2421,44.7439896484375,821.2949,44.1129896484375Q822.3477,43.4819896484375,823.4302,42.9032896484375Q824.5127,42.3246896484375,825.6222,41.7998896484375Q826.7318,41.2750896484375,827.8658,40.8053896484375Q828.9998,40.3356896484375,830.1555,39.9221896484375Q831.3112,39.5086896484375,832.4858,39.1523896484375Q833.6603,38.7960896484375,834.851,38.4977896484375Q836.0416,38.1995896484375,837.24549,37.9600896484375Q838.44933,37.7206896484375,839.66348,37.5405896484375Q840.87762,37.3604896484375,842.09914,37.2401896484375Q843.32066,37.1198896484375,844.54662,37.0595896484375Q845.77257,36.9993896484375,847,36.9993896484375Q848.22743,36.9993896484375,849.45338,37.0595896484375Q850.67934,37.1198896484375,851.90086,37.2401896484375Q853.12238,37.3604896484375,854.33652,37.5405896484375Q855.55067,37.7206896484375,856.75451,37.9600896484375Q857.9584,38.1995896484375,859.149,38.4977896484375Q860.3397,38.7960896484375,861.5142,39.1523896484375Q862.6888,39.5086896484375,863.8445,39.9221896484375Q865.0002,40.3356896484375,866.1342,40.8053896484375Q867.2682,41.2750896484375,868.3778,41.7998896484375Q869.4873,42.3246896484375,870.5698,42.9032896484375Q871.6523,43.4819896484375,872.7051,44.1129896484375Q873.7579,44.7439896484375,874.7785,45.4258896484375Q875.7991,46.1078896484375,876.785,46.8389896484375Q877.7708,47.5701896484375,878.7197,48.3488896484375Q879.6685,49.1275896484375,880.5779,49.9517896484375Q881.4874,50.7760896484375,882.3552999999999,51.6440896484375Q883.2233,52.5119896484375,884.0476,53.4214896484375Q884.8718,54.3308896484375,885.6505,55.2796896484375Q886.4292,56.2285896484375,887.1604,57.2143896484375Q887.8916,58.200289648437504,888.5735,59.2208896484375Q889.2554,60.2414896484375,889.8864,61.2942896484375Q890.5174,62.3470896484375,891.0961,63.4295896484375Q891.6747,64.5120896484375,892.1995,65.62158964843749Q892.7243,66.73118964843749,893.194,67.86518964843751Q893.6637,68.9991896484375,894.0772,70.1548896484375Q894.4907,71.3105896484375,894.847,72.4851896484375Q895.2033,73.6596896484375,895.5016,74.8503896484375Q895.7998,76.0409896484375,896.0393,77.2448796484375Q896.2787,78.4487196484375,896.4588,79.66286964843749Q896.6389,80.87700964843751,896.7592,82.0985296484375Q896.8795,83.3200496484375,896.9398,84.5460096484375Q897,85.7719596484375,897,86.9993896484375Z" fill="#555555" fill-opacity="1"/></g><g style="mix-blend-mode:passthrough" transform="matrix(0.7074324488639832,0.7067809700965881,-0.7074323892593384,0.7067810297012329,102.03883340630637,-74.37067988128183)"><path d="M1138.4099301757813,135.9710693359375L140.89093017578125,135.9710693359375L140.89093017578125,35.9710693359375L1138.4099301757813,35.9710693359375L1138.4099301757813,135.9710693359375ZM1188.4109301757812,85.9710693359375Q1188.4109301757812,87.1984993359375,1188.3509301757813,88.4244493359375Q1188.2909301757813,89.6504093359375,1188.1709301757812,90.8719293359375Q1188.0509301757813,92.09344933593749,1187.8709301757813,93.30758933593751Q1187.6909301757812,94.5217393359375,1187.4509301757812,95.7255793359375Q1187.2109301757812,96.9294693359375,1186.9109301757812,98.1200693359375Q1186.6109301757813,99.3107693359375,1186.2609301757811,100.4852693359375Q1185.9009301757812,101.6598693359375,1185.4909301757812,102.8155693359375Q1185.0709301757813,103.9712693359375,1184.6009301757813,105.10526933593749Q1184.1309301757813,106.23926933593751,1183.6109301757813,107.34886933593751Q1183.0809301757813,108.4583693359375,1182.5009301757811,109.5408693359375Q1181.9309301757812,110.6233693359375,1181.2909301757813,111.6761693359375Q1180.6609301757812,112.7289693359375,1179.9809301757812,113.74956933593751Q1179.3009301757813,114.7701693359375,1178.5709301757813,115.7560693359375Q1177.8409301757813,116.74186933593751,1177.0609301757813,117.6907693359375Q1176.2809301757814,118.6395693359375,1175.4609301757812,119.5489693359375Q1174.6309301757813,120.45846933593751,1173.7609301757811,121.3263693359375Q1172.9009301757812,122.1943693359375,1171.9909301757812,123.0186693359375Q1171.0809301757813,123.84286933593751,1170.1309301757813,124.6215693359375Q1169.1809301757812,125.40026933593751,1168.1909301757812,126.13146933593751Q1167.2109301757812,126.8626693359375,1166.1909301757812,127.5445693359375Q1165.1709301757812,128.2264693359375,1164.1109301757813,128.8574693359375Q1163.0609301757813,129.4884693359375,1161.9809301757814,130.0671693359375Q1160.9009301757812,130.6457693359375,1159.7909301757813,131.1705693359375Q1158.6809301757812,131.6953693359375,1157.5409301757813,132.16506933593752Q1156.4109301757812,132.6347693359375,1155.2509301757814,133.0482693359375Q1154.1009301757813,133.4617693359375,1152.9209301757812,133.8180693359375Q1151.7509301757814,134.1743693359375,1150.5609301757813,134.4726693359375Q1149.3709301757813,134.7708693359375,1148.1609301757812,135.0103693359375Q1146.9609301757814,135.24976933593751,1145.7509301757814,135.4298693359375Q1144.5309301757811,135.6099693359375,1143.3109301757813,135.7302693359375Q1142.0909301757813,135.8505693359375,1140.8629301757812,135.9108693359375Q1139.6369301757813,135.9710693359375,1138.4099301757813,135.9710693359375Q1137.1819301757814,135.9710693359375,1135.9559301757813,135.9108693359375Q1134.7299301757812,135.8505693359375,1133.5089301757812,135.7302693359375Q1132.2869301757812,135.6099693359375,1131.0729301757813,135.4298693359375Q1129.858930175781,135.24976933593751,1128.6549301757814,135.0103693359375Q1127.4509301757812,134.7708693359375,1126.2599301757814,134.4726693359375Q1125.0699301757813,134.1743693359375,1123.8949301757812,133.8180693359375Q1122.7209301757812,133.4617693359375,1121.5649301757812,133.0482693359375Q1120.4089301757813,132.6347693359375,1119.2749301757813,132.16506933593752Q1118.1409301757812,131.6953693359375,1117.0319301757813,131.1705693359375Q1115.9219301757812,130.6457693359375,1114.8399301757813,130.0671693359375Q1113.7569301757812,129.4884693359375,1112.7039301757814,128.8574693359375Q1111.6519301757812,128.2264693359375,1110.6309301757813,127.5445693359375Q1109.6099301757813,126.86256933593751,1108.6249301757812,126.13146933593751Q1107.6389301757813,125.40026933593751,1106.6899301757812,124.6215693359375Q1105.7409301757812,123.84286933593751,1104.8319301757813,123.0186693359375Q1103.9219301757812,122.1943693359375,1103.0539301757813,121.3263693359375Q1102.1859301757813,120.45846933593751,1101.3619301757813,119.5489693359375Q1100.5379301757812,118.6395693359375,1099.7589301757812,117.6907693359375Q1098.9799301757812,116.74186933593751,1098.2489301757812,115.7560693359375Q1097.5179301757812,114.7701693359375,1096.8359301757814,113.74956933593751Q1096.1539301757812,112.7289693359375,1095.5229301757813,111.6761693359375Q1094.8919301757812,110.6233693359375,1094.3129301757813,109.5408693359375Q1093.7349301757813,108.4583693359375,1093.2099301757812,107.34886933593751Q1092.6849301757811,106.23926933593751,1092.2149301757813,105.10526933593749Q1091.7459301757813,103.9712693359375,1091.3319301757813,102.8155693359375Q1090.9189301757813,101.6598693359375,1090.5619301757813,100.4852693359375Q1090.2059301757813,99.3107693359375,1089.9079301757813,98.1200693359375Q1089.6099301757813,96.9294693359375,1089.3699301757813,95.7255793359375Q1089.1309301757813,94.5217393359375,1088.9509301757812,93.30758933593751Q1088.7709301757814,92.09344933593749,1088.6499301757813,90.8719293359375Q1088.5299301757814,89.6504093359375,1088.4699301757812,88.4244493359375Q1088.4089301757813,87.1984993359375,1088.4099301757813,85.9710693359375Q1088.4089301757813,84.7436393359375,1088.4699301757812,83.5176893359375Q1088.5299301757814,82.2917293359375,1088.6499301757813,81.0702093359375Q1088.7709301757814,79.84868933593751,1088.9509301757812,78.63454933593749Q1089.1309301757813,77.4203993359375,1089.3699301757813,76.2165593359375Q1089.6099301757813,75.0126693359375,1089.9079301757813,73.8220693359375Q1090.2059301757813,72.6313693359375,1090.5619301757813,71.4568693359375Q1090.9189301757813,70.2822693359375,1091.3319301757813,69.1265693359375Q1091.7459301757813,67.9708693359375,1092.2149301757813,66.83686933593751Q1092.6849301757811,65.70286933593749,1093.2099301757812,64.59326933593749Q1093.7349301757813,63.483769335937495,1094.3129301757813,62.4012693359375Q1094.8919301757812,61.3187693359375,1095.5229301757813,60.2659693359375Q1096.1539301757812,59.2131693359375,1096.8359301757814,58.1925693359375Q1097.5179301757812,57.171969335937504,1098.2489301757812,56.1860693359375Q1098.9799301757812,55.2002693359375,1099.7589301757812,54.2513693359375Q1100.5379301757812,53.3025693359375,1101.3619301757813,52.3931693359375Q1102.1859301757813,51.4836693359375,1103.0539301757813,50.6157693359375Q1103.9219301757812,49.7477693359375,1104.8319301757813,48.9234693359375Q1105.7409301757812,48.0992693359375,1106.6899301757812,47.3205693359375Q1107.6389301757813,46.5418693359375,1108.6249301757812,45.8106693359375Q1109.6099301757813,45.0794693359375,1110.6309301757813,44.3975693359375Q1111.6519301757812,43.7156693359375,1112.7039301757814,43.0846693359375Q1113.7569301757812,42.4536693359375,1114.8399301757813,41.8749693359375Q1115.9219301757812,41.2963693359375,1117.0319301757813,40.7715693359375Q1118.1409301757812,40.2467693359375,1119.2749301757813,39.7770693359375Q1120.4089301757813,39.3073693359375,1121.5649301757812,38.8938693359375Q1122.7209301757812,38.4803693359375,1123.8949301757812,38.1240693359375Q1125.0699301757813,37.7677693359375,1126.2609301757811,37.4694693359375Q1127.4509301757812,37.1712693359375,1128.6549301757814,36.9317693359375Q1129.858930175781,36.6923693359375,1131.0729301757813,36.5122693359375Q1132.2869301757812,36.3321693359375,1133.5089301757812,36.2118693359375Q1134.7299301757812,36.0915693359375,1135.9559301757813,36.0312693359375Q1137.1819301757814,35.9710693359375,1138.4099301757813,35.9710693359375Q1139.6369301757813,35.9710693359375,1140.8629301757812,36.0312693359375Q1142.0909301757813,36.0915693359375,1143.3109301757813,36.2118693359375Q1144.5309301757811,36.3321693359375,1145.7509301757814,36.5122693359375Q1146.9609301757814,36.6923693359375,1148.1609301757812,36.9317693359375Q1149.3709301757813,37.1712693359375,1150.5609301757813,37.4694693359375Q1151.7509301757814,37.7677693359375,1152.9209301757812,38.1240693359375Q1154.1009301757813,38.4803693359375,1155.2509301757814,38.8938693359375Q1156.4109301757812,39.3073693359375,1157.5409301757813,39.7770693359375Q1158.6809301757812,40.2467693359375,1159.7909301757813,40.7715693359375Q1160.9009301757812,41.2963693359375,1161.9809301757814,41.8749693359375Q1163.0609301757813,42.4536693359375,1164.1109301757813,43.0846693359375Q1165.1709301757812,43.7156693359375,1166.1909301757812,44.3975693359375Q1167.2109301757812,45.0795693359375,1168.1909301757812,45.8106693359375Q1169.1809301757812,46.5418693359375,1170.1309301757813,47.3205693359375Q1171.0809301757813,48.0992693359375,1171.9909301757812,48.9234693359375Q1172.9009301757812,49.7477693359375,1173.7609301757811,50.6157693359375Q1174.6309301757813,51.4836693359375,1175.4609301757812,52.3931693359375Q1176.2809301757814,53.3025693359375,1177.0609301757813,54.2513693359375Q1177.8409301757813,55.2002693359375,1178.5709301757813,56.1860693359375Q1179.3009301757813,57.171969335937504,1179.9809301757812,58.1925693359375Q1180.6609301757812,59.2131693359375,1181.3009301757813,60.2659693359375Q1181.9309301757812,61.3187693359375,1182.5009301757811,62.4012693359375Q1183.0809301757813,63.483769335937495,1183.6109301757813,64.59326933593749Q1184.1309301757813,65.70286933593749,1184.6009301757813,66.83686933593751Q1185.0709301757813,67.9708693359375,1185.4909301757812,69.1265693359375Q1185.9009301757812,70.2822693359375,1186.2609301757811,71.4568693359375Q1186.6109301757813,72.6313693359375,1186.9109301757812,73.8220693359375Q1187.2109301757812,75.0126693359375,1187.4509301757812,76.2165593359375Q1187.6909301757812,77.4203993359375,1187.8709301757813,78.63454933593749Q1188.0509301757813,79.84868933593751,1188.1709301757812,81.0702093359375Q1188.2909301757813,82.2917293359375,1188.3509301757813,83.5176893359375Q1188.4109301757812,84.7436393359375,1188.4109301757812,85.9710693359375ZM190.89093017578125,85.9710693359375Q190.89093017578125,87.1984993359375,190.83073017578124,88.4244493359375Q190.77043017578126,89.6504093359375,190.65013017578124,90.8719293359375Q190.52983017578126,92.09344933593749,190.34973017578125,93.30758933593751Q190.16963017578126,94.5217393359375,189.93023017578125,95.7255793359375Q189.69073017578125,96.9294693359375,189.39253017578125,98.1200693359375Q189.09423017578126,99.3107693359375,188.73793017578126,100.4852693359375Q188.38163017578125,101.6598693359375,187.96813017578125,102.8155693359375Q187.55463017578126,103.9712693359375,187.08493017578127,105.10526933593749Q186.61523017578125,106.23926933593751,186.09043017578125,107.34886933593751Q185.56563017578125,108.4583693359375,184.98703017578126,109.5408693359375Q184.40833017578126,110.6233693359375,183.77733017578126,111.6761693359375Q183.14633017578126,112.7289693359375,182.46443017578125,113.74956933593751Q181.78243017578126,114.7701693359375,181.05133017578126,115.7560693359375Q180.32013017578126,116.74186933593751,179.54143017578124,117.6907693359375Q178.76273017578126,118.6395693359375,177.93853017578124,119.5489693359375Q177.11423017578124,120.45846933593751,176.24623017578125,121.3263693359375Q175.37833017578126,122.1943693359375,174.46883017578125,123.0186693359375Q173.55943017578124,123.84286933593751,172.61063017578124,124.6215693359375Q171.66173017578126,125.40026933593751,170.67593017578125,126.13146933593751Q169.69003017578126,126.8626693359375,168.66943017578126,127.5445693359375Q167.64883017578126,128.2264693359375,166.59603017578127,128.8574693359375Q165.54323017578125,129.4884693359375,164.46073017578124,130.0671693359375Q163.37823017578125,130.6457693359375,162.26873017578126,131.1705693359375Q161.15913017578126,131.6953693359375,160.02513017578124,132.16506933593752Q158.89113017578126,132.6347693359375,157.73543017578126,133.0482693359375Q156.57973017578126,133.4617693359375,155.40513017578124,133.8180693359375Q154.23063017578124,134.1743693359375,153.03993017578125,134.4726693359375Q151.84933017578126,134.7708693359375,150.64544017578126,135.0103693359375Q149.44160017578125,135.24976933593751,148.22745017578126,135.4298693359375Q147.01331017578124,135.6099693359375,145.79179017578124,135.7302693359375Q144.57027017578125,135.8505693359375,143.34431017578126,135.9108693359375Q142.11836017578125,135.9710693359375,140.89093017578125,135.9710693359375Q139.66350017578125,135.9710693359375,138.43755017578124,135.9108693359375Q137.21159017578125,135.8505693359375,135.99007017578126,135.7302693359375Q134.76855017578126,135.6099693359375,133.55441017578124,135.4298693359375Q132.34026017578125,135.24976933593751,131.13642017578124,135.0103693359375Q129.93253017578124,134.7708693359375,128.74193017578125,134.4726693359375Q127.55123017578126,134.1743693359375,126.37673017578125,133.8180693359375Q125.20213017578125,133.4617693359375,124.04643017578125,133.0482693359375Q122.89073017578124,132.6347693359375,121.75673017578126,132.16506933593752Q120.62273017578124,131.6953693359375,119.51313017578124,131.1705693359375Q118.40363017578125,130.6457693359375,117.32113017578125,130.0671693359375Q116.23863017578125,129.4884693359375,115.18583017578125,128.8574693359375Q114.13303017578124,128.2264693359375,113.11243017578124,127.5445693359375Q112.09183017578125,126.86256933593751,111.10593017578125,126.13146933593751Q110.12013017578124,125.40026933593751,109.17123017578125,124.6215693359375Q108.22243017578126,123.84286933593751,107.31303017578125,123.0186693359375Q106.40353017578124,122.1943693359375,105.53563017578125,121.3263693359375Q104.66763017578126,120.45846933593751,103.84333017578125,119.5489693359375Q103.01913017578124,118.6395693359375,102.24043017578126,117.6907693359375Q101.46173017578124,116.74186933593751,100.73053017578124,115.7560693359375Q99.99933017578125,114.7701693359375,99.31743017578125,113.74956933593751Q98.63553017578124,112.7289693359375,98.00453017578124,111.6761693359375Q97.37353017578124,110.6233693359375,96.79483017578124,109.5408693359375Q96.21623017578125,108.4583693359375,95.69143017578125,107.34886933593751Q95.16663017578125,106.23926933593751,94.69693017578125,105.10526933593749Q94.22723017578124,103.9712693359375,93.81373017578125,102.8155693359375Q93.40023017578125,101.6598693359375,93.04393017578124,100.4852693359375Q92.68763017578125,99.3107693359375,92.38933017578125,98.1200693359375Q92.09113017578125,96.9294693359375,91.85163017578125,95.7255793359375Q91.61223017578125,94.5217393359375,91.43213017578125,93.30758933593751Q91.25203017578124,92.09344933593749,91.13173017578126,90.8719293359375Q91.01143017578124,89.6504093359375,90.95113017578126,88.4244493359375Q90.89093017578125,87.1984993359375,90.89093017578125,85.9710693359375Q90.89093017578125,84.7436393359375,90.95113017578126,83.5176893359375Q91.01143017578124,82.2917293359375,91.13173017578126,81.0702093359375Q91.25203017578124,79.84868933593751,91.43213017578125,78.63454933593749Q91.61223017578125,77.4203993359375,91.85163017578125,76.2165593359375Q92.09113017578125,75.0126693359375,92.38933017578125,73.8220693359375Q92.68763017578125,72.6313693359375,93.04393017578124,71.4568693359375Q93.40023017578125,70.2822693359375,93.81373017578125,69.1265693359375Q94.22723017578124,67.9708693359375,94.69693017578125,66.83686933593751Q95.16663017578125,65.70286933593749,95.69143017578125,64.59326933593749Q96.21623017578125,63.483769335937495,96.79483017578124,62.4012693359375Q97.37353017578124,61.3187693359375,98.00453017578124,60.2659693359375Q98.63553017578124,59.2131693359375,99.31743017578125,58.1925693359375Q99.99943017578124,57.171969335937504,100.73053017578124,56.1860693359375Q101.46173017578124,55.2002693359375,102.24043017578126,54.2513693359375Q103.01913017578124,53.3025693359375,103.84333017578125,52.3931693359375Q104.66763017578126,51.4836693359375,105.53563017578125,50.6157693359375Q106.40353017578124,49.7477693359375,107.31303017578125,48.9234693359375Q108.22243017578126,48.0992693359375,109.17123017578125,47.3205693359375Q110.12013017578124,46.5418693359375,111.10593017578125,45.8106693359375Q112.09183017578125,45.0794693359375,113.11243017578124,44.3975693359375Q114.13303017578124,43.7156693359375,115.18583017578125,43.0846693359375Q116.23863017578125,42.4536693359375,117.32113017578125,41.8749693359375Q118.40363017578125,41.2963693359375,119.51313017578124,40.7715693359375Q120.62273017578124,40.2467693359375,121.75673017578126,39.7770693359375Q122.89073017578124,39.3073693359375,124.04643017578125,38.8938693359375Q125.20213017578125,38.4803693359375,126.37673017578125,38.1240693359375Q127.55123017578126,37.7677693359375,128.74193017578125,37.4694693359375Q129.93253017578124,37.1712693359375,131.13642017578124,36.9317693359375Q132.34026017578125,36.6923693359375,133.55441017578124,36.5122693359375Q134.76855017578126,36.3321693359375,135.99007017578126,36.2118693359375Q137.21159017578125,36.0915693359375,138.43755017578124,36.0312693359375Q139.66350017578125,35.9710693359375,140.89093017578125,35.9710693359375Q142.11836017578125,35.9710693359375,143.34431017578126,36.0312693359375Q144.57027017578125,36.0915693359375,145.79179017578124,36.2118693359375Q147.01331017578124,36.3321693359375,148.22745017578126,36.5122693359375Q149.44160017578125,36.6923693359375,150.64544017578126,36.9317693359375Q151.84933017578126,37.1712693359375,153.03993017578125,37.4694693359375Q154.23063017578124,37.7677693359375,155.40513017578124,38.1240693359375Q156.57973017578126,38.4803693359375,157.73543017578126,38.8938693359375Q158.89113017578126,39.3073693359375,160.02513017578124,39.7770693359375Q161.15913017578126,40.2467693359375,162.26873017578126,40.7715693359375Q163.37823017578125,41.2963693359375,164.46073017578124,41.8749693359375Q165.54323017578125,42.4536693359375,166.59603017578127,43.0846693359375Q167.64883017578126,43.7156693359375,168.66943017578126,44.3975693359375Q169.69003017578126,45.0795693359375,170.67593017578125,45.8106693359375Q171.66173017578126,46.5418693359375,172.61063017578124,47.3205693359375Q173.55943017578124,48.0992693359375,174.46883017578125,48.9234693359375Q175.37833017578126,49.7477693359375,176.24623017578125,50.6157693359375Q177.11423017578124,51.4836693359375,177.93853017578124,52.3931693359375Q178.76273017578126,53.3025693359375,179.54143017578124,54.2513693359375Q180.32013017578126,55.2002693359375,181.05133017578126,56.1860693359375Q181.78253017578123,57.171969335937504,182.46443017578125,58.1925693359375Q183.14633017578126,59.2131693359375,183.77733017578126,60.2659693359375Q184.40833017578126,61.3187693359375,184.98703017578126,62.4012693359375Q185.56563017578125,63.483769335937495,186.09043017578125,64.59326933593749Q186.61523017578125,65.70286933593749,187.08493017578127,66.83686933593751Q187.55463017578126,67.9708693359375,187.96813017578125,69.1265693359375Q188.38163017578125,70.2822693359375,188.73793017578126,71.4568693359375Q189.09423017578126,72.6313693359375,189.39253017578125,73.8220693359375Q189.69073017578125,75.0126693359375,189.93023017578125,76.2165593359375Q190.16963017578126,77.4203993359375,190.34973017578125,78.63454933593749Q190.52983017578126,79.84868933593751,190.65013017578124,81.0702093359375Q190.77043017578126,82.2917293359375,190.83073017578124,83.5176893359375Q190.89093017578125,84.7436393359375,190.89093017578125,85.9710693359375Z" fill="#555555" fill-opacity="1"/></g><g style="mix-blend-mode:passthrough" transform="matrix(0.7074324488639832,-0.7067809700965881,-0.7074323892593384,-0.7067810297012329,598.6959576538902,1444.5686107408947)"><path d="M1138.4100522460938,838.0269775390625L140.89105224609375,838.0269775390625L140.89105224609375,738.0269775390625L1138.4100522460938,738.0269775390625L1138.4100522460938,838.0269775390625ZM1188.4110522460937,788.0269775390625Q1188.4110522460937,789.2544075390625,1188.3510522460938,790.4803575390625Q1188.2910522460938,791.7063175390625,1188.1710522460937,792.9278375390625Q1188.0510522460938,794.1493575390625,1187.8710522460938,795.3634975390625Q1187.6910522460937,796.5776475390625,1187.4510522460937,797.7814875390625Q1187.2110522460937,798.9853775390625,1186.9110522460937,800.1759775390625Q1186.6110522460938,801.3666775390625,1186.2610522460936,802.5411775390625Q1185.9010522460937,803.7157775390625,1185.4910522460937,804.8714775390625Q1185.0710522460938,806.0271775390624,1184.6010522460938,807.1611775390625Q1184.1310522460938,808.2951775390625,1183.6110522460938,809.4047775390625Q1183.0810522460938,810.5142775390625,1182.5010522460936,811.5967775390625Q1181.9310522460937,812.6792775390625,1181.2910522460938,813.7320775390625Q1180.6610522460937,814.7848775390624,1179.9810522460937,815.8054775390625Q1179.3010522460938,816.8260775390625,1178.5710522460938,817.8119775390625Q1177.8410522460938,818.7977775390625,1177.0610522460938,819.7466775390625Q1176.2810522460939,820.6954775390625,1175.4610522460937,821.6048775390625Q1174.6310522460938,822.5143775390625,1173.7610522460936,823.3822775390624Q1172.9010522460937,824.2502775390625,1171.9910522460937,825.0745775390625Q1171.0810522460938,825.8987775390625,1170.1310522460938,826.6774775390625Q1169.1810522460937,827.4561775390625,1168.1910522460937,828.1873775390625Q1167.2110522460937,828.9185775390625,1166.1910522460937,829.6004775390625Q1165.1710522460937,830.2823775390625,1164.1110522460938,830.9133775390625Q1163.0610522460938,831.5443775390625,1161.981052246094,832.1230775390625Q1160.9010522460937,832.7016775390625,1159.7910522460938,833.2264775390624Q1158.6810522460937,833.7512775390625,1157.5410522460938,834.2209775390625Q1156.4110522460937,834.6906775390624,1155.2510522460939,835.1041775390624Q1154.1010522460938,835.5176775390624,1152.9210522460937,835.8739775390625Q1151.7510522460939,836.2302775390625,1150.5610522460938,836.5285775390626Q1149.3710522460938,836.8267775390625,1148.1610522460937,837.0662775390625Q1146.961052246094,837.3056775390625,1145.7510522460939,837.4857775390625Q1144.5310522460936,837.6658775390625,1143.3110522460938,837.7861775390625Q1142.0910522460938,837.9064775390625,1140.8630522460937,837.9667775390625Q1139.6370522460938,838.0269775390625,1138.4100522460938,838.0269775390625Q1137.182052246094,838.0269775390625,1135.9560522460938,837.9667775390625Q1134.7300522460937,837.9064775390625,1133.5090522460937,837.7861775390625Q1132.2870522460937,837.6658775390625,1131.0730522460938,837.4857775390625Q1129.8590522460936,837.3056775390625,1128.6550522460939,837.0662775390625Q1127.4510522460937,836.8267775390625,1126.260052246094,836.5285775390626Q1125.0700522460938,836.2302775390625,1123.8950522460937,835.8739775390625Q1122.7210522460937,835.5176775390624,1121.5650522460937,835.1041775390624Q1120.4090522460938,834.6906775390624,1119.2750522460938,834.2209775390625Q1118.1410522460938,833.7512775390625,1117.0320522460938,833.2264775390624Q1115.9220522460937,832.7016775390625,1114.8400522460938,832.1230775390625Q1113.7570522460937,831.5443775390625,1112.7040522460939,830.9133775390625Q1111.6520522460937,830.2823775390625,1110.6310522460938,829.6004775390625Q1109.6100522460938,828.9184775390625,1108.6250522460937,828.1873775390625Q1107.6390522460938,827.4561775390625,1106.6900522460937,826.6774775390625Q1105.7410522460937,825.8987775390625,1104.8320522460938,825.0745775390625Q1103.9220522460937,824.2502775390625,1103.0540522460938,823.3822775390624Q1102.1860522460938,822.5143775390625,1101.3620522460938,821.6048775390625Q1100.5380522460937,820.6954775390625,1099.7590522460937,819.7466775390625Q1098.9800522460937,818.7977775390625,1098.2490522460937,817.8119775390625Q1097.5180522460937,816.8260775390625,1096.836052246094,815.8054775390625Q1096.1540522460937,814.7848775390624,1095.5230522460938,813.7320775390625Q1094.8920522460937,812.6792775390625,1094.3130522460938,811.5967775390625Q1093.7350522460938,810.5142775390625,1093.2100522460937,809.4047775390625Q1092.6850522460936,808.2951775390625,1092.2150522460938,807.1611775390625Q1091.7460522460938,806.0271775390624,1091.3320522460938,804.8714775390625Q1090.9190522460938,803.7157775390625,1090.5620522460938,802.5411775390625Q1090.2060522460938,801.3666775390625,1089.9080522460938,800.1759775390625Q1089.6100522460938,798.9853775390625,1089.3700522460938,797.7814875390625Q1089.1310522460938,796.5776475390625,1088.9510522460937,795.3634975390625Q1088.7710522460939,794.1493575390625,1088.6500522460938,792.9278375390625Q1088.5300522460939,791.7063175390625,1088.4700522460937,790.4803575390625Q1088.4090522460938,789.2544075390625,1088.4100522460938,788.0269775390625Q1088.4090522460938,786.7995475390625,1088.4700522460937,785.5735975390625Q1088.5300522460939,784.3476375390625,1088.6500522460938,783.1261175390625Q1088.7710522460939,781.9045975390625,1088.9510522460937,780.6904575390625Q1089.1310522460938,779.4763075390625,1089.3700522460938,778.2724675390625Q1089.6100522460938,777.0685775390625,1089.9080522460938,775.8779775390625Q1090.2060522460938,774.6872775390625,1090.5620522460938,773.5127775390625Q1090.9190522460938,772.3381775390625,1091.3320522460938,771.1824775390625Q1091.7460522460938,770.0267775390626,1092.2150522460938,768.8927775390625Q1092.6850522460936,767.7587775390625,1093.2100522460937,766.6491775390625Q1093.7350522460938,765.5396775390625,1094.3130522460938,764.4571775390625Q1094.8920522460937,763.3746775390625,1095.5230522460938,762.3218775390625Q1096.1540522460937,761.2690775390626,1096.836052246094,760.2484775390625Q1097.5180522460937,759.2278775390625,1098.2490522460937,758.2419775390625Q1098.9800522460937,757.2561775390625,1099.7590522460937,756.3072775390625Q1100.5380522460937,755.3584775390625,1101.3620522460938,754.4490775390625Q1102.1860522460938,753.5395775390625,1103.0540522460938,752.6716775390626Q1103.9220522460937,751.8036775390625,1104.8320522460938,750.9793775390625Q1105.7410522460937,750.1551775390625,1106.6900522460937,749.3764775390625Q1107.6390522460938,748.5977775390625,1108.6250522460937,747.8665775390625Q1109.6100522460938,747.1353775390625,1110.6310522460938,746.4534775390625Q1111.6520522460937,745.7715775390625,1112.7040522460939,745.1405775390625Q1113.7570522460937,744.5095775390625,1114.8400522460938,743.9308775390625Q1115.9220522460937,743.3522775390625,1117.0320522460938,742.8274775390626Q1118.1410522460938,742.3026775390625,1119.2750522460938,741.8329775390625Q1120.4090522460938,741.3632775390626,1121.5650522460937,740.9497775390626Q1122.7210522460937,740.5362775390626,1123.8950522460937,740.1799775390625Q1125.0700522460938,739.8236775390625,1126.2610522460936,739.5253775390624Q1127.4510522460937,739.2271775390625,1128.6550522460939,738.9876775390625Q1129.8590522460936,738.7482775390625,1131.0730522460938,738.5681775390625Q1132.2870522460937,738.3880775390625,1133.5090522460937,738.2677775390625Q1134.7300522460937,738.1474775390625,1135.9560522460938,738.0871775390625Q1137.182052246094,738.0269775390625,1138.4100522460938,738.0269775390625Q1139.6370522460938,738.0269775390625,1140.8630522460937,738.0871775390625Q1142.0910522460938,738.1474775390625,1143.3110522460938,738.2677775390625Q1144.5310522460936,738.3880775390625,1145.7510522460939,738.5681775390625Q1146.961052246094,738.7482775390625,1148.1610522460937,738.9876775390625Q1149.3710522460938,739.2271775390625,1150.5610522460938,739.5253775390624Q1151.7510522460939,739.8236775390625,1152.9210522460937,740.1799775390625Q1154.1010522460938,740.5362775390626,1155.2510522460939,740.9497775390626Q1156.4110522460937,741.3632775390626,1157.5410522460938,741.8329775390625Q1158.6810522460937,742.3026775390625,1159.7910522460938,742.8274775390626Q1160.9010522460937,743.3522775390625,1161.981052246094,743.9308775390625Q1163.0610522460938,744.5095775390625,1164.1110522460938,745.1405775390625Q1165.1710522460937,745.7715775390625,1166.1910522460937,746.4534775390625Q1167.2110522460937,747.1354775390625,1168.1910522460937,747.8665775390625Q1169.1810522460937,748.5977775390625,1170.1310522460938,749.3764775390625Q1171.0810522460938,750.1551775390625,1171.9910522460937,750.9793775390625Q1172.9010522460937,751.8036775390625,1173.7610522460936,752.6716775390626Q1174.6310522460938,753.5395775390625,1175.4610522460937,754.4490775390625Q1176.2810522460939,755.3584775390625,1177.0610522460938,756.3072775390625Q1177.8410522460938,757.2561775390625,1178.5710522460938,758.2419775390625Q1179.3010522460938,759.2278775390625,1179.9810522460937,760.2484775390625Q1180.6610522460937,761.2690775390626,1181.3010522460938,762.3218775390625Q1181.9310522460937,763.3746775390625,1182.5010522460936,764.4571775390625Q1183.0810522460938,765.5396775390625,1183.6110522460938,766.6491775390625Q1184.1310522460938,767.7587775390625,1184.6010522460938,768.8927775390625Q1185.0710522460938,770.0267775390626,1185.4910522460937,771.1824775390625Q1185.9010522460937,772.3381775390625,1186.2610522460936,773.5127775390625Q1186.6110522460938,774.6872775390625,1186.9110522460937,775.8779775390625Q1187.2110522460937,777.0685775390625,1187.4510522460937,778.2724675390625Q1187.6910522460937,779.4763075390625,1187.8710522460938,780.6904575390625Q1188.0510522460938,781.9045975390625,1188.1710522460937,783.1261175390625Q1188.2910522460938,784.3476375390625,1188.3510522460938,785.5735975390625Q1188.4110522460937,786.7995475390625,1188.4110522460937,788.0269775390625ZM190.89105224609375,788.0269775390625Q190.89105224609375,789.2544075390625,190.83085224609374,790.4803575390625Q190.77055224609376,791.7063175390625,190.65025224609374,792.9278375390625Q190.52995224609376,794.1493575390625,190.34985224609375,795.3634975390625Q190.16975224609376,796.5776475390625,189.93035224609375,797.7814875390625Q189.69085224609375,798.9853775390625,189.39265224609375,800.1759775390625Q189.09435224609376,801.3666775390625,188.73805224609376,802.5411775390625Q188.38175224609375,803.7157775390625,187.96825224609375,804.8714775390625Q187.55475224609376,806.0271775390624,187.08505224609377,807.1611775390625Q186.61535224609375,808.2951775390625,186.09055224609375,809.4047775390625Q185.56575224609375,810.5142775390625,184.98715224609376,811.5967775390625Q184.40845224609376,812.6792775390625,183.77745224609376,813.7320775390625Q183.14645224609376,814.7848775390624,182.46455224609375,815.8054775390625Q181.78255224609376,816.8260775390625,181.05145224609376,817.8119775390625Q180.32025224609376,818.7977775390625,179.54155224609374,819.7466775390625Q178.76285224609376,820.6954775390625,177.93865224609374,821.6048775390625Q177.11435224609374,822.5143775390625,176.24635224609375,823.3822775390624Q175.37845224609376,824.2502775390625,174.46895224609375,825.0745775390625Q173.55955224609374,825.8987775390625,172.61075224609374,826.6774775390625Q171.66185224609376,827.4561775390625,170.67605224609375,828.1873775390625Q169.69015224609376,828.9185775390625,168.66955224609376,829.6004775390625Q167.64895224609376,830.2823775390625,166.59615224609377,830.9133775390625Q165.54335224609375,831.5443775390625,164.46085224609374,832.1230775390625Q163.37835224609375,832.7016775390625,162.26885224609376,833.2264775390624Q161.15925224609376,833.7512775390625,160.02525224609374,834.2209775390625Q158.89125224609376,834.6906775390624,157.73555224609376,835.1041775390624Q156.57985224609376,835.5176775390624,155.40525224609374,835.8739775390625Q154.23075224609374,836.2302775390625,153.04005224609375,836.5285775390626Q151.84945224609376,836.8267775390625,150.64556224609376,837.0662775390625Q149.44172224609375,837.3056775390625,148.22757224609376,837.4857775390625Q147.01343224609374,837.6658775390625,145.79191224609374,837.7861775390625Q144.57039224609375,837.9064775390625,143.34443224609376,837.9667775390625Q142.11848224609375,838.0269775390625,140.89105224609375,838.0269775390625Q139.66362224609375,838.0269775390625,138.43767224609374,837.9667775390625Q137.21171224609375,837.9064775390625,135.99019224609376,837.7861775390625Q134.76867224609376,837.6658775390625,133.55453224609374,837.4857775390625Q132.34038224609375,837.3056775390625,131.13654224609374,837.0662775390625Q129.93265224609374,836.8267775390625,128.74205224609375,836.5285775390626Q127.55135224609376,836.2302775390625,126.37685224609375,835.8739775390625Q125.20225224609375,835.5176775390624,124.04655224609375,835.1041775390624Q122.89085224609374,834.6906775390624,121.75685224609376,834.2209775390625Q120.62285224609374,833.7512775390625,119.51325224609374,833.2264775390624Q118.40375224609375,832.7016775390625,117.32125224609375,832.1230775390625Q116.23875224609375,831.5443775390625,115.18595224609375,830.9133775390625Q114.13315224609374,830.2823775390625,113.11255224609374,829.6004775390625Q112.09195224609375,828.9184775390625,111.10605224609375,828.1873775390625Q110.12025224609374,827.4561775390625,109.17135224609375,826.6774775390625Q108.22255224609376,825.8987775390625,107.31315224609375,825.0745775390625Q106.40365224609374,824.2502775390625,105.53575224609375,823.3822775390624Q104.66775224609376,822.5143775390625,103.84345224609375,821.6048775390625Q103.01925224609374,820.6954775390625,102.24055224609376,819.7466775390625Q101.46185224609374,818.7977775390625,100.73065224609374,817.8119775390625Q99.99945224609375,816.8260775390625,99.31755224609375,815.8054775390625Q98.63565224609374,814.7848775390624,98.00465224609374,813.7320775390625Q97.37365224609374,812.6792775390625,96.79495224609374,811.5967775390625Q96.21635224609375,810.5142775390625,95.69155224609375,809.4047775390625Q95.16675224609375,808.2951775390625,94.69705224609375,807.1611775390625Q94.22735224609374,806.0271775390624,93.81385224609375,804.8714775390625Q93.40035224609375,803.7157775390625,93.04405224609374,802.5411775390625Q92.68775224609375,801.3666775390625,92.38945224609375,800.1759775390625Q92.09125224609375,798.9853775390625,91.85175224609375,797.7814875390625Q91.61235224609375,796.5776475390625,91.43225224609375,795.3634975390625Q91.25215224609374,794.1493575390625,91.13185224609376,792.9278375390625Q91.01155224609374,791.7063175390625,90.95125224609376,790.4803575390625Q90.89105224609375,789.2544075390625,90.89105224609375,788.0269775390625Q90.89105224609375,786.7995475390625,90.95125224609376,785.5735975390625Q91.01155224609374,784.3476375390625,91.13185224609376,783.1261175390625Q91.25215224609374,781.9045975390625,91.43225224609375,780.6904575390625Q91.61235224609375,779.4763075390625,91.85175224609375,778.2724675390625Q92.09125224609375,777.0685775390625,92.38945224609375,775.8779775390625Q92.68775224609375,774.6872775390625,93.04405224609374,773.5127775390625Q93.40035224609375,772.3381775390625,93.81385224609375,771.1824775390625Q94.22735224609374,770.0267775390626,94.69705224609375,768.8927775390625Q95.16675224609375,767.7587775390625,95.69155224609375,766.6491775390625Q96.21635224609375,765.5396775390625,96.79495224609374,764.4571775390625Q97.37365224609374,763.3746775390625,98.00465224609374,762.3218775390625Q98.63565224609374,761.2690775390626,99.31755224609375,760.2484775390625Q99.99955224609374,759.2278775390625,100.73065224609374,758.2419775390625Q101.46185224609374,757.2561775390625,102.24055224609376,756.3072775390625Q103.01925224609374,755.3584775390625,103.84345224609375,754.4490775390625Q104.66775224609376,753.5395775390625,105.53575224609375,752.6716775390626Q106.40365224609374,751.8036775390625,107.31315224609375,750.9793775390625Q108.22255224609376,750.1551775390625,109.17135224609375,749.3764775390625Q110.12025224609374,748.5977775390625,111.10605224609375,747.8665775390625Q112.09195224609375,747.1353775390625,113.11255224609374,746.4534775390625Q114.13315224609374,745.7715775390625,115.18595224609375,745.1405775390625Q116.23875224609375,744.5095775390625,117.32125224609375,743.9308775390625Q118.40375224609375,743.3522775390625,119.51325224609374,742.8274775390626Q120.62285224609374,742.3026775390625,121.75685224609376,741.8329775390625Q122.89085224609374,741.3632775390626,124.04655224609375,740.9497775390626Q125.20225224609375,740.5362775390626,126.37685224609375,740.1799775390625Q127.55135224609376,739.8236775390625,128.74205224609375,739.5253775390624Q129.93265224609374,739.2271775390625,131.13654224609374,738.9876775390625Q132.34038224609375,738.7482775390625,133.55453224609374,738.5681775390625Q134.76867224609376,738.3880775390625,135.99019224609376,738.2677775390625Q137.21171224609375,738.1474775390625,138.43767224609374,738.0871775390625Q139.66362224609375,738.0269775390625,140.89105224609375,738.0269775390625Q142.11848224609375,738.0269775390625,143.34443224609376,738.0871775390625Q144.57039224609375,738.1474775390625,145.79191224609374,738.2677775390625Q147.01343224609374,738.3880775390625,148.22757224609376,738.5681775390625Q149.44172224609375,738.7482775390625,150.64556224609376,738.9876775390625Q151.84945224609376,739.2271775390625,153.04005224609375,739.5253775390624Q154.23075224609374,739.8236775390625,155.40525224609374,740.1799775390625Q156.57985224609376,740.5362775390626,157.73555224609376,740.9497775390626Q158.89125224609376,741.3632775390626,160.02525224609374,741.8329775390625Q161.15925224609376,742.3026775390625,162.26885224609376,742.8274775390626Q163.37835224609375,743.3522775390625,164.46085224609374,743.9308775390625Q165.54335224609375,744.5095775390625,166.59615224609377,745.1405775390625Q167.64895224609376,745.7715775390625,168.66955224609376,746.4534775390625Q169.69015224609376,747.1354775390625,170.67605224609375,747.8665775390625Q171.66185224609376,748.5977775390625,172.61075224609374,749.3764775390625Q173.55955224609374,750.1551775390625,174.46895224609375,750.9793775390625Q175.37845224609376,751.8036775390625,176.24635224609375,752.6716775390626Q177.11435224609374,753.5395775390625,177.93865224609374,754.4490775390625Q178.76285224609376,755.3584775390625,179.54155224609374,756.3072775390625Q180.32025224609376,757.2561775390625,181.05145224609376,758.2419775390625Q181.78265224609373,759.2278775390625,182.46455224609375,760.2484775390625Q183.14645224609376,761.2690775390626,183.77745224609376,762.3218775390625Q184.40845224609376,763.3746775390625,184.98715224609376,764.4571775390625Q185.56575224609375,765.5396775390625,186.09055224609375,766.6491775390625Q186.61535224609375,767.7587775390625,187.08505224609377,768.8927775390625Q187.55475224609376,770.0267775390626,187.96825224609375,771.1824775390625Q188.38175224609375,772.3381775390625,188.73805224609376,773.5127775390625Q189.09435224609376,774.6872775390625,189.39265224609375,775.8779775390625Q189.69085224609375,777.0685775390625,189.93035224609375,778.2724675390625Q190.16975224609376,779.4763075390625,190.34985224609375,780.6904575390625Q190.52995224609376,781.9045975390625,190.65025224609374,783.1261175390625Q190.77055224609376,784.3476375390625,190.83085224609374,785.5735975390625Q190.89105224609375,786.7995475390625,190.89105224609375,788.0269775390625Z" fill="#555555" fill-opacity="1"/></g></g></svg>