<svg version="1.1" xmlns="http://www.w3.org/2000/svg" xmlns:xlink="http://www.w3.org/1999/xlink" width="128.47035" height="100.627" viewBox="0,0,128.47035,100.627"><g transform="translate(-178.56764,-103.67063)"><g data-paper-data="{&quot;isPaintingLayer&quot;:true}" fill-rule="nonzero" stroke-linejoin="miter" stroke-miterlimit="10" stroke-dasharray="" stroke-dashoffset="0" style="mix-blend-mode: normal"><path d="M204.60399,103.77064l9.7,-0.1v3.5v3.5l-2.23314,-0.52648c0,0 -12.47476,0.36966 -15.37427,0.45558c-1.14383,0.0339 -2.38189,1.687 -2.37136,3.27628c0.03054,4.61209 0.17877,26.99462 0.17877,26.99462l0.3,30.3l9.8,0.3l9.7,0.3v2.9v3h-10.4c-5.13208,0 -9.70024,-0.00187 -12.2395,-0.95085c-0.82912,-0.30987 -2.02912,-1.03002 -2.6134,-2.00143c-0.72949,-1.21284 -0.74711,-2.7347 -0.74711,-3.38457c0,-4.26922 0,-29.76315 0,-29.76315c0,-20.8 -0.41344,-32.10841 0.73025,-33.8521c0.96974,-1.61764 2.36975,-2.5479 3.56975,-3.0479c1.2,-0.5 6.6,-0.9 12,-0.9z" fill="#00b3ff" stroke="none" stroke-width="1" stroke-linecap="butt"/><path d="M216.89406,103.78797h15.5h15.5v3.5v3.5h-6.5h-6.5v33.5v33.5h-3h-3v-33.5v-33.5h-6h-6v-3.5z" fill="#00b3ff" stroke="none" stroke-width="1" stroke-linecap="butt"/><path d="M254.71337,104.28917c1.1,-0.2 1.7,6.3 2.9,31.9c0.57394,11.06873 1.2151,20.99464 1.59277,24.76201c0.08296,0.82752 0.49631,1.42641 0.78164,0.61074c0.97392,-2.78417 2.96002,-11.13166 5.12559,-21.57274l5,-24.3l3,-0.3l2.9,-0.3l5,24.6c3.6,17.7 5.2,23.8 5.6,21.8c0.4,-1.5 1.2,-15 1.9,-29.8c0.6,-14.9 1.3,-27.1 1.5,-27.3c0.1,-0.2 1.4,0 2.9,0.4c3.2,0.8 3.1,-1.3 1.1,37.4c-0.8,15.7 -1.5,30.2 -1.5,32.2c0,0 -0.03628,1.59638 -0.53899,2.5726c-0.47492,0.92225 -1.40588,1.2274 -1.79255,1.2274c-0.83544,0 -2.56845,0 -2.56845,0c0,0 -1.58848,0 -2.38616,0c-0.43794,0 -1.22895,0.20427 -1.9051,-0.51145c-0.56255,-0.59546 -1.04558,-2.05535 -1.17966,-2.69638c-0.57319,-2.74056 -2.52908,-12.09216 -2.52908,-12.09216c-5.3,-24.7 -6.3,-28.9 -6.7,-28.4c-0.4,0.4 -4.8,20.4 -8.4,37.9c0,0 -0.45592,2.40396 -0.65303,3.44325c-0.04933,0.2601 -0.20583,1.0222 -0.41821,1.33982c-0.48967,0.73236 -1.27631,1.01692 -1.73086,1.01692c-0.87918,0 -3.09791,0 -3.09791,0c0,0 -1.46477,0 -2.22645,0c-0.45693,0 -1.5344,-0.57052 -2.14551,-1.65936c-0.46261,-0.82427 -0.53168,-2.04029 -0.58392,-2.98923c-0.29782,-5.41037 -1.54412,-28.05141 -1.54412,-28.05141c-0.9,-18.1 -1.9,-34.5 -2.2,-36.5c-0.5,-3.2 -0.3,-3.7 1.8,-4.1c1.3,-0.2 2.6,-0.5 3,-0.6z" fill="#555555" stroke="none" stroke-width="1" stroke-linecap="butt"/><path d="M182.31764,200.54763c0,0 40.79119,-6.88788 60.93653,-9.6797c19.01805,-2.6356 60.03382,-5.92559 60.03382,-5.92559" fill="none" stroke="#ff0000" stroke-width="7.5" stroke-linecap="round"/></g></g></svg>