<svg version="1.1" xmlns="http://www.w3.org/2000/svg" xmlns:xlink="http://www.w3.org/1999/xlink" width="105.82916" height="152.65873" viewBox="0,0,105.82916,152.65873"><g transform="translate(-187.08542,-103.67064)"><g data-paper-data="{&quot;isPaintingLayer&quot;:true}" fill-rule="nonzero" stroke="none" stroke-width="1" stroke-linecap="butt" stroke-linejoin="miter" stroke-miterlimit="10" stroke-dasharray="" stroke-dashoffset="0" style="mix-blend-mode: normal"><path d="M204.60399,103.77064l9.7,-0.1v3.5v3.5l-2.23314,-0.52648c0,0 -12.47476,0.36966 -15.37427,0.45558c-1.14383,0.0339 -2.38189,1.687 -2.37136,3.27628c0.03054,4.61209 0.17877,26.99462 0.17877,26.99462l0.3,30.3l9.8,0.3l9.7,0.3v2.9v3h-10.4c-5.13207,0 -9.70024,-0.00187 -12.23949,-0.95085c-0.82912,-0.30987 -2.02913,-1.03001 -2.6134,-2.00142c-0.72949,-1.21284 -0.74711,-2.73471 -0.74711,-3.38458c0,-4.26922 0,-29.76315 0,-29.76315c0,-20.8 -0.41344,-32.10841 0.73025,-33.8521c0.96974,-1.61765 2.36975,-2.5479 3.56975,-3.0479c1.2,-0.5 6.6,-0.9 12,-0.9z" fill="#00b3ff"/><path d="M223.23004,103.67064h15.5h15.5v3.5v3.5h-6.5h-6.5v33.5v33.5h-3h-3v-33.5v-33.5h-6h-6v-3.5z" fill="#00b3ff"/><path d="M192.11458,182.40239c1.1,-0.2 1.7,6.3 2.9,31.9c0.57394,11.06872 1.21509,20.99463 1.59277,24.76201c0.08296,0.82751 0.49632,1.42641 0.78164,0.61073c0.97392,-2.78417 2.96003,-11.13166 5.12559,-21.57274l5,-24.3l3,-0.3l2.9,-0.3l5,24.6c3.6,17.7 5.2,23.8 5.6,21.8c0.4,-1.5 1.2,-15 1.9,-29.8c0.6,-14.9 1.3,-27.1 1.5,-27.3c0.1,-0.2 1.4,0 2.9,0.4c3.2,0.8 3.1,-1.3 1.1,37.4c-0.8,15.7 -1.5,30.2 -1.5,32.2c0,0 -0.03628,1.59638 -0.53899,2.5726c-0.47492,0.92225 -1.40588,1.2274 -1.79255,1.2274c-0.83544,0 -2.56845,0 -2.56845,0c0,0 -1.58848,0 -2.38616,0c-0.43794,0 -1.22895,0.20426 -1.90511,-0.51146c-0.56255,-0.59546 -1.04558,-2.05535 -1.17965,-2.69639c-0.57319,-2.74055 -2.52908,-12.09216 -2.52908,-12.09216c-5.3,-24.7 -6.3,-28.9 -6.7,-28.4c-0.4,0.4 -4.8,20.4 -8.4,37.9c0,0 -0.45593,2.40396 -0.65303,3.44325c-0.04933,0.2601 -0.20584,1.0222 -0.41821,1.33982c-0.48967,0.73237 -1.27631,1.01693 -1.73085,1.01693c-0.87918,0 -3.09791,0 -3.09791,0c0,0 -1.46478,0 -2.22645,0c-0.45693,0 -1.5344,-0.57052 -2.14551,-1.65937c-0.46261,-0.82427 -0.53169,-2.04029 -0.58392,-2.98922c-0.29782,-5.41037 -1.54412,-28.05141 -1.54412,-28.05141c-0.9,-18.1 -1.9,-34.5 -2.2,-36.5c-0.5,-3.2 -0.3,-3.7 1.8,-4.1c1.3,-0.2 2.6,-0.5 3,-0.6z" fill="#555555"/><path d="M273.91458,182.30239h3h3v37v37h-3h-3v-37z" fill="#555555"/><path d="M286.91458,182.30239h3h3v37v37h-3h-3v-37z" fill="#555555"/><path d="M240.91458,205.30239h8.6c8.1,0 8.7,0.1 11.5,2.9l2.9,2.9v18.7c0,11.4 0.4,19.4 1.1,20.6c0.8,1.7 0.77395,3.40924 -0.72605,4.50924c-1,0.8 -3.87395,0.39076 -3.87395,0.39076l-6.9521,0.15631c0,0 -4.9959,0.13408 -6.91934,-0.48917c-1.93514,-0.62703 -3.72607,-3.2181 -3.89955,-4.69715c-0.33197,-2.83036 -0.56347,-12.66579 -0.56347,-12.66579c0,0 -0.56555,-12.3042 2.03445,-14.9042c2.1,-2.1 3.9,-2.8 8.2,-3.2c5.3,-0.4 5.6,-0.6 5.6,-3.1c0,-4.2 -1.7,-5.1 -9.7,-5.1h-7.3v-3zM253.81458,225.50239c0,0 -3.56241,-0.34678 -5.38322,1.61232c-1.61707,1.73989 -1.51678,5.45473 -1.51678,10.48768c0,2.74396 0.21018,5.77375 0.40436,7.98748c0.16674,1.90077 1.5192,3.23407 2.36816,3.25829c1.39852,0.0399 5.55353,0.15843 5.55353,0.15843c0,0 1.21712,-0.20706 1.96724,-0.79323c0.60099,-0.46964 0.76981,-1.28856 0.76015,-1.64941c-0.05069,-1.89254 -0.25343,-9.46157 -0.25343,-9.46157c0,0 -0.1568,-5.90602 -0.21217,-7.99189c-0.01344,-0.5061 -0.17147,-2.32681 -0.82375,-2.92466c-0.89789,-0.82296 -2.86407,-0.68346 -2.86407,-0.68346z" fill="#555555"/></g></g></svg>